<?xml version="1.0" encoding="utf-8"?>
<!-- Generator: Adobe Illustrator 23.0.3, SVG Export Plug-In . SVG Version: 6.00 Build 0)  -->
<svg version="1.1" id="ArkModdingLogo" xmlns="http://www.w3.org/2000/svg" xmlns:xlink="http://www.w3.org/1999/xlink" x="0px"
	 y="0px" viewBox="0 0 1920 1920" style="enable-background:new 0 0 1920 1920;" xml:space="preserve">
<style type="text/css">
	.st0{fill:#0AA7EA;}
</style>
<g id="Guids">
</g>
<path id="Ring" class="st0" d="M1856,1027.2V892.8l-204.3-40.9c-7.6-48.9-20.2-96.1-37.3-141L1772,572.4L1704.8,456l-198,67
	c-32.4-40.5-69.3-77.4-109.8-109.8l67-198L1347.6,148l-138.5,157.6c-45-17.1-92.2-29.8-141-37.3L1027.2,64H892.8l-40.9,204.3
	c-48.9,7.6-96.1,20.2-141,37.3L572.4,148L456,215.2l67,198c-40.5,32.4-77.4,69.3-109.8,109.8l-198-67L148,572.4l157.6,138.5
	c-17.1,45-29.8,92.2-37.3,141L64,892.8v134.4l204.3,40.9c7.6,48.9,20.2,96.1,37.3,141L148,1347.6l67.2,116.4l198-67
	c32.4,40.5,69.3,77.4,109.8,109.8l-67,198l116.4,67.2l138.5-157.6c45,17.1,92.2,29.8,141,37.3l40.9,204.3h134.4l40.9-204.3
	c48.9-7.6,96.1-20.2,141-37.3l138.5,157.6l116.4-67.2l-67-198c40.5-32.4,77.4-69.3,109.8-109.8l198,67l67.2-116.4l-157.6-138.5
	c17.1-45,29.8-92.2,37.3-141L1856,1027.2z M960,1502.1c-299.4,0-542.1-242.7-542.1-542.1S660.6,417.8,960,417.8
	s542.2,242.7,542.2,542.2S1259.4,1502.1,960,1502.1z"/>
<path id="Ark" class="st0" d="M1331.8,902.4l-38.2,12.8H1255l17-39.2l8.8-50.4l-231.1-369.8c-29.1-5.1-59.1-7.8-89.7-7.8
	c-30.6,0-60.6,2.7-89.8,7.8l-24.6,37l12.8,38.4l-41.7,11.1L615.1,854.9l0.1,47.5l-38.4,12.8l-112.4,173.7
	c23.8,91.9,72.6,173.8,138.6,238l77-143h440l32-32l-128-320v160H781.6l153.6-281.6l12.8-51.2h25.6l12.8,51.2l331.4,615.8
	c64.7-63.2,112.7-143.5,136.8-233.5L1331.8,902.4z"/>
</svg>
